<?xml version="1.0" encoding="utf-8"?>
<!-- Generator: Adobe Illustrator 24.1.2, SVG Export Plug-In . SVG Version: 6.00 Build 0)  -->
<svg version="1.1" id="Layer_2" xmlns="http://www.w3.org/2000/svg" xmlns:xlink="http://www.w3.org/1999/xlink" x="0px" y="0px"
	 viewBox="0 0 165.3 165.3" enable-background="new 0 0 165.3 165.3" xml:space="preserve">
<g id="g992" transform="translate(782.8699,645.7084)">
	<path id="path994" fill="#212121" d="M-654-519.3c-6.5,0-12.6-2.5-17.2-7.1l-24.8-24.8c-1.7-1.7-4.8-1.7-6.5,0l-24.9,24.9
		c-4.6,4.6-10.7,7.1-17.2,7.1h-4.9l31.4,31.4c9.8,9.8,25.7,9.8,35.5,0l31.5-31.5H-654z"/>
</g>
<g id="g996" transform="translate(666.4241,758.5073)">
	<path id="path998" fill="#212121" d="M-628.1-719.8c6.5,0,12.6,2.5,17.2,7.1l24.9,24.9c1.8,1.8,4.7,1.8,6.5,0l24.8-24.8
		c4.6-4.6,10.7-7.1,17.2-7.1h3l-31.5-31.5c-9.8-9.8-25.7-9.8-35.5,0l-31.4,31.4H-628.1z"/>
</g>
<g id="g1000" transform="translate(820.2131,724.8881)">
	<path id="path1002" fill="#212121" d="M-662.3-660l-19-19c-0.4,0.2-0.9,0.3-1.4,0.3h-8.7c-4.5,0-8.9,1.8-12,5l-24.8,24.8
		c-2.3,2.3-5.4,3.5-8.4,3.5c-3,0-6.1-1.2-8.4-3.5l-24.9-24.9c-3.2-3.2-7.5-5-12-5h-10.6c-0.5,0-0.9-0.1-1.3-0.3l-19.1,19.1
		c-9.8,9.8-9.8,25.7,0,35.5l19.1,19.1c0.4-0.2,0.8-0.3,1.3-0.3h10.6c4.5,0,8.8-1.8,12-5l24.9-24.9c4.5-4.5,12.3-4.5,16.8,0
		l24.8,24.8c3.2,3.2,7.5,5,12,5h8.7c0.5,0,0.9,0.1,1.4,0.3l19-19C-652.5-634.3-652.5-650.2-662.3-660"/>
</g>
</svg>
